<svg width="118" height="41" viewBox="0 0 118 41" fill="none" xmlns="http://www.w3.org/2000/svg">
<path d="M108.465 0.426888H9.54153C9.18095 0.426888 8.82468 0.426888 8.46505 0.428888C8.16401 0.430888 7.86536 0.436698 7.56142 0.441588C6.90113 0.44949 6.24239 0.508564 5.59093 0.618297C4.94038 0.730419 4.31021 0.941801 3.72174 1.24529C3.13398 1.55135 2.59693 1.94905 2.13007 2.42395C1.66076 2.89751 1.26955 3.44489 0.971493 4.04503C0.67261 4.64398 0.465364 5.2858 0.356912 5.94834C0.247429 6.61005 0.188515 7.27938 0.180699 7.95033C0.171574 8.25693 0.17061 8.56455 0.165802 8.87119V31.9853C0.17061 32.2958 0.171574 32.5966 0.180699 32.9072C0.188518 33.5782 0.247431 34.2475 0.356912 34.9091C0.465064 35.5721 0.672323 36.2143 0.971493 36.8134C1.26942 37.4116 1.66068 37.9568 2.13007 38.4277C2.59516 38.9047 3.13256 39.3027 3.72174 39.6064C4.31021 39.9107 4.94031 40.1234 5.59093 40.2372C6.2425 40.3461 6.90117 40.4052 7.56142 40.414C7.86536 40.4208 8.16401 40.4247 8.46505 40.4247C8.82467 40.4267 9.18096 40.4267 9.54153 40.4267H108.465C108.818 40.4267 109.177 40.4267 109.53 40.4247C109.83 40.4247 110.137 40.4208 110.437 40.414C111.096 40.4056 111.753 40.3465 112.404 40.2372C113.056 40.1226 113.689 39.91 114.28 39.6064C114.869 39.3025 115.406 38.9046 115.87 38.4277C116.338 37.9549 116.731 37.4102 117.032 36.8134C117.329 36.2138 117.534 35.5717 117.641 34.9091C117.751 34.2474 117.812 33.5782 117.823 32.9072C117.827 32.5966 117.827 32.2958 117.827 31.9853C117.835 31.622 117.835 31.2607 117.835 30.8916V9.96297C117.835 9.59677 117.835 9.23349 117.827 8.87119C117.827 8.56455 117.827 8.25693 117.823 7.95029C117.812 7.27928 117.751 6.6101 117.641 5.9483C117.534 5.28615 117.329 4.64437 117.032 4.04499C116.425 2.84207 115.463 1.86291 114.28 1.2452C113.689 0.942453 113.056 0.731127 112.404 0.618207C111.754 0.50799 111.096 0.448895 110.437 0.441448C110.137 0.436568 109.83 0.430708 109.53 0.428758C109.177 0.426758 108.818 0.426758 108.465 0.426758V0.426888Z" fill="#A6A6A6"/>
<path d="M8.46982 39.5513C8.17022 39.5513 7.87786 39.5474 7.58061 39.5406C6.96483 39.5325 6.35049 39.478 5.74263 39.3775C5.17583 39.2783 4.62675 39.0936 4.11351 38.8297C3.60497 38.5679 3.14114 38.2246 2.7398 37.8131C2.33264 37.4063 1.99366 36.9346 1.7363 36.4166C1.4761 35.8951 1.29603 35.3363 1.20235 34.7594C1.10119 34.1395 1.04646 33.5127 1.03863 32.8844C1.03239 32.6735 1.02423 31.9713 1.02423 31.9713V8.87082C1.02423 8.87082 1.03292 8.17941 1.03868 7.97628C1.04617 7.34897 1.10059 6.72314 1.20145 6.10422C1.29529 5.52575 1.47551 4.96525 1.73585 4.44213C1.99226 3.92445 2.32936 3.45236 2.73406 3.04419C3.13831 2.63213 3.60362 2.28711 4.11303 2.02172C4.62509 1.75861 5.17313 1.57525 5.73878 1.47778C6.34864 1.37635 6.96511 1.32151 7.58303 1.31372L8.4703 1.30151H109.526L110.423 1.31421C111.036 1.32161 111.647 1.37596 112.251 1.4768C112.822 1.57549 113.376 1.76013 113.894 2.02465C114.914 2.55949 115.745 3.40567 116.269 4.44457C116.525 4.96408 116.702 5.52 116.795 6.09348C116.897 6.71748 116.954 7.34823 116.966 7.98068C116.969 8.26388 116.969 8.56808 116.969 8.87082C116.977 9.24582 116.977 9.60275 116.977 9.96261V30.8912C116.977 31.2545 116.977 31.609 116.969 31.9664C116.969 32.2916 116.969 32.5895 116.965 32.8961C116.953 33.5172 116.897 34.1367 116.797 34.7496C116.705 35.3306 116.526 35.8939 116.266 36.4196C116.007 36.932 115.67 37.3996 115.267 37.8053C114.865 38.219 114.401 38.5643 113.891 38.8278C113.375 39.0937 112.822 39.2791 112.251 39.3775C111.643 39.4785 111.029 39.533 110.413 39.5406C110.125 39.5474 109.823 39.5513 109.53 39.5513L108.465 39.5533L8.46982 39.5513Z" fill="black"/>
<path d="M24.5219 20.7232C24.5324 19.8885 24.7504 19.0701 25.1556 18.3442C25.5607 17.6182 26.1399 17.0083 26.8391 16.5711C26.3949 15.926 25.8089 15.395 25.1276 15.0205C24.4464 14.6459 23.6886 14.4381 22.9145 14.4134C21.2633 14.2372 19.6624 15.4183 18.821 15.4183C17.9633 15.4183 16.6677 14.4309 15.2727 14.4601C14.3703 14.4898 13.4908 14.7566 12.72 15.2347C11.9492 15.7127 11.3133 16.3857 10.8743 17.188C8.97255 20.5364 10.3911 25.4574 12.2128 28.164C13.1243 29.4894 14.1895 30.9698 15.5833 30.9173C16.9472 30.8598 17.4566 30.0328 19.103 30.0328C20.7341 30.0328 21.2121 30.9173 22.6342 30.8839C24.0977 30.8598 25.0199 29.5527 25.8993 28.2148C26.5542 27.2704 27.0581 26.2267 27.3924 25.1223C26.5421 24.7566 25.8165 24.1444 25.306 23.3621C24.7956 22.5798 24.5228 21.662 24.5219 20.7232Z" fill="white"/>
<path d="M21.8357 12.6336C22.6337 11.6594 23.0269 10.4072 22.9317 9.14301C21.7125 9.27323 20.5863 9.86578 19.7775 10.8026C19.3821 11.2603 19.0792 11.7927 18.8863 12.3695C18.6933 12.9462 18.614 13.556 18.6529 14.164C19.2627 14.1704 19.866 14.036 20.4173 13.7709C20.9686 13.5058 21.4536 13.1169 21.8357 12.6336Z" fill="white"/>
<path d="M41.7629 27.564H37.1084L35.9907 30.9204H34.0192L38.4279 18.5025H40.4761L44.8848 30.9204H42.8797L41.7629 27.564ZM37.5905 26.0152H41.2799L39.4612 20.5679H39.4103L37.5905 26.0152Z" fill="white"/>
<path d="M54.4061 26.3947C54.4061 29.2081 52.9253 31.0157 50.6908 31.0157C50.1247 31.0458 49.5618 30.9132 49.0664 30.6331C48.571 30.353 48.1632 29.9366 47.8896 29.4317H47.8473V33.9161H46.0199V21.8673H47.7888V23.3732H47.8224C48.1085 22.8707 48.5232 22.4565 49.0224 22.1747C49.5215 21.8928 50.0865 21.7539 50.6572 21.7726C52.9167 21.7726 54.4061 23.589 54.4061 26.3947ZM52.5278 26.3947C52.5278 24.5617 51.5963 23.3566 50.1751 23.3566C48.7788 23.3566 47.8397 24.5871 47.8397 26.3947C47.8397 28.2189 48.7788 29.4406 50.1751 29.4406C51.5963 29.4406 52.5278 28.2443 52.5278 26.3947Z" fill="white"/>
<path d="M64.2047 26.3947C64.2047 29.2081 62.7239 31.0157 60.4894 31.0157C59.9233 31.0458 59.3603 30.9132 58.8649 30.6331C58.3696 30.353 57.9617 29.9366 57.6882 29.4317H57.6459V33.9161H55.8185V21.8673H57.5873V23.3732H57.621C57.9071 22.8707 58.3218 22.4565 58.8209 22.1747C59.3201 21.8928 59.8851 21.7539 60.4557 21.7726C62.7153 21.7726 64.2047 23.589 64.2047 26.3947ZM62.3264 26.3947C62.3264 24.5617 61.3949 23.3566 59.9737 23.3566C58.5774 23.3566 57.6383 24.587 57.6383 26.3947C57.6383 28.2189 58.5774 29.4405 59.9737 29.4405C61.3949 29.4405 62.3264 28.2443 62.3264 26.3947H62.3264Z" fill="white"/>
<path d="M70.6805 27.4606C70.8159 28.692 71.9923 29.5006 73.5998 29.5006C75.1401 29.5006 76.2483 28.692 76.2483 27.5816C76.2483 26.6178 75.5799 26.0406 73.9974 25.6451L72.4148 25.2574C70.1726 24.7066 69.1316 23.6402 69.1316 21.9098C69.1316 19.7672 70.9677 18.2955 73.5748 18.2955C76.1551 18.2955 77.9239 19.7672 77.9835 21.9098H76.1388C76.0283 20.6705 75.021 19.9225 73.5489 19.9225C72.0768 19.9225 71.0694 20.6793 71.0694 21.7809C71.0694 22.6588 71.7128 23.1754 73.2867 23.5709L74.6321 23.9068C77.1374 24.5093 78.1784 25.5328 78.1784 27.3492C78.1784 29.6724 76.3587 31.1275 73.4644 31.1275C70.7564 31.1275 68.928 29.7066 68.8099 27.4605L70.6805 27.4606Z" fill="white"/>
<path d="M82.1226 19.7256V21.8682H83.8156V23.3398H82.1226V28.331C82.1226 29.1064 82.4616 29.4677 83.2058 29.4677C83.4068 29.4642 83.6074 29.4498 83.8069 29.4247V30.8876C83.4723 30.9512 83.1322 30.98 82.7919 30.9736C80.9895 30.9736 80.2865 30.2851 80.2865 28.5292V23.3398H78.9921V21.8682H80.2865V19.7256H82.1226Z" fill="white"/>
<path d="M84.796 26.3952C84.796 23.5466 86.4458 21.7566 89.0184 21.7566C91.5996 21.7566 93.2417 23.5466 93.2417 26.3952C93.2417 29.2517 91.6083 31.0339 89.0184 31.0339C86.4294 31.0339 84.796 29.2517 84.796 26.3952ZM91.3797 26.3952C91.3797 24.4411 90.4991 23.2878 89.0184 23.2878C87.5376 23.2878 86.658 24.4499 86.658 26.3952C86.658 28.3571 87.5376 29.5017 89.0184 29.5017C90.4991 29.5017 91.3797 28.3571 91.3797 26.3952H91.3797Z" fill="white"/>
<path d="M94.7485 21.8672H96.4914V23.4082H96.5337C96.6516 22.927 96.9289 22.5016 97.3188 22.2037C97.7088 21.9059 98.1877 21.7536 98.6751 21.7725C98.8857 21.7718 99.0957 21.795 99.3012 21.8418V23.5801C99.0353 23.4975 98.758 23.4596 98.4801 23.4678C98.2147 23.4569 97.95 23.5045 97.7043 23.6074C97.4586 23.7102 97.2378 23.866 97.0569 24.0639C96.8759 24.2618 96.7393 24.4971 96.6563 24.7538C96.5733 25.0105 96.5458 25.2823 96.5759 25.5508V30.9209H94.7485L94.7485 21.8672Z" fill="white"/>
<path d="M107.727 28.2624C107.481 29.906 105.907 31.0339 103.893 31.0339C101.303 31.0339 99.6957 29.2692 99.6957 26.4382C99.6957 23.5984 101.312 21.7566 103.816 21.7566C106.279 21.7566 107.828 23.4773 107.828 26.2224V26.8591H101.54V26.9714C101.511 27.3046 101.552 27.6403 101.661 27.9561C101.769 28.2719 101.942 28.5607 102.169 28.8033C102.395 29.0458 102.67 29.2366 102.975 29.3629C103.279 29.4892 103.607 29.5482 103.935 29.5358C104.367 29.577 104.801 29.4753 105.171 29.2458C105.541 29.0164 105.829 28.6715 105.991 28.2624L107.727 28.2624ZM101.549 25.5603H106C106.016 25.2607 105.972 24.9609 105.869 24.6797C105.766 24.3985 105.607 24.1419 105.402 23.9262C105.197 23.7104 104.95 23.5401 104.677 23.4258C104.404 23.3116 104.111 23.256 103.816 23.2624C103.519 23.2606 103.224 23.3188 102.948 23.4335C102.673 23.5483 102.423 23.7173 102.212 23.931C102.001 24.1446 101.834 24.3986 101.72 24.6782C101.606 24.9579 101.548 25.2577 101.549 25.5603V25.5603Z" fill="white"/>
<path d="M37.3614 9.15643C37.7446 9.12847 38.129 9.18733 38.487 9.32876C38.8451 9.47019 39.1678 9.69067 39.4319 9.9743C39.696 10.2579 39.8949 10.5976 40.0143 10.9689C40.1337 11.3402 40.1706 11.7337 40.1222 12.1213C40.1222 14.0275 39.1092 15.1232 37.3614 15.1232H35.2421V9.15643H37.3614ZM36.1534 14.2794H37.2596C37.5334 14.296 37.8074 14.2504 38.0616 14.1458C38.3158 14.0412 38.5439 13.8802 38.7293 13.6747C38.9146 13.4691 39.0526 13.2241 39.1331 12.9575C39.2136 12.6909 39.2346 12.4093 39.1946 12.1334C39.2317 11.8586 39.2085 11.5788 39.1268 11.3142C39.0451 11.0495 38.9068 10.8065 38.7219 10.6026C38.5369 10.3986 38.3099 10.2388 38.0571 10.1346C37.8043 10.0303 37.532 9.98426 37.2596 9.99964H36.1534V14.2794Z" fill="white"/>
<path d="M41.1517 12.8694C41.1239 12.5735 41.1572 12.2749 41.2495 11.9928C41.3417 11.7108 41.491 11.4514 41.6876 11.2314C41.8842 11.0115 42.1238 10.8357 42.3911 10.7154C42.6585 10.5951 42.9475 10.533 43.2399 10.533C43.5322 10.533 43.8213 10.5951 44.0886 10.7154C44.3559 10.8357 44.5955 11.0115 44.7922 11.2314C44.9888 11.4514 45.138 11.7108 45.2303 11.9928C45.3225 12.2749 45.3558 12.5735 45.328 12.8694C45.3564 13.1656 45.3235 13.4646 45.2314 13.7471C45.1394 14.0296 44.9903 14.2895 44.7936 14.5099C44.5969 14.7303 44.3571 14.9064 44.0895 15.0269C43.8219 15.1475 43.5325 15.2097 43.2399 15.2097C42.9472 15.2097 42.6578 15.1475 42.3902 15.0269C42.1226 14.9064 41.8828 14.7303 41.6861 14.5099C41.4895 14.2895 41.3403 14.0296 41.2483 13.7471C41.1562 13.4646 41.1234 13.1656 41.1517 12.8694ZM44.4292 12.8694C44.4292 11.8933 43.998 11.3225 43.2413 11.3225C42.4817 11.3225 42.0544 11.8933 42.0544 12.8694C42.0544 13.8533 42.4817 14.4197 43.2413 14.4197C43.998 14.4197 44.4292 13.8494 44.4292 12.8694H44.4292Z" fill="white"/>
<path d="M50.8794 15.1225H49.9729L49.0578 11.8061H48.9887L48.0773 15.1225H47.1795L45.959 10.6196H46.8453L47.6385 14.0556H47.7038L48.6141 10.6196H49.4525L50.3628 14.0556H50.432L51.2213 10.6196H52.0952L50.8794 15.1225Z" fill="white"/>
<path d="M53.1217 10.6211H53.9629V11.3364H54.0282C54.139 11.0795 54.3258 10.8641 54.5627 10.7203C54.7995 10.5765 55.0746 10.5114 55.3495 10.5342C55.565 10.5177 55.7813 10.5507 55.9825 10.6308C56.1837 10.7109 56.3646 10.836 56.5118 10.9969C56.6589 11.1577 56.7687 11.3502 56.8328 11.56C56.8969 11.7698 56.9138 11.9916 56.8821 12.2089V15.1239H56.0083V12.4321C56.0083 11.7085 55.6991 11.3486 55.0528 11.3486C54.9065 11.3417 54.7605 11.367 54.6247 11.4228C54.489 11.4787 54.3667 11.5637 54.2663 11.6721C54.1659 11.7805 54.0897 11.9096 54.0429 12.0508C53.9962 12.1919 53.98 12.3416 53.9955 12.4897V15.124H53.1217L53.1217 10.6211Z" fill="white"/>
<path d="M58.2744 8.862H59.1482V15.1227H58.2744V8.862Z" fill="white"/>
<path d="M60.3631 12.8695C60.3353 12.5735 60.3686 12.275 60.4609 11.9929C60.5532 11.7108 60.7025 11.4514 60.8991 11.2315C61.0957 11.0115 61.3354 10.8357 61.6027 10.7154C61.8701 10.5952 62.1592 10.533 62.4515 10.533C62.7438 10.533 63.0329 10.5952 63.3003 10.7154C63.5676 10.8357 63.8073 11.0115 64.0039 11.2315C64.2005 11.4514 64.3498 11.7108 64.4421 11.9929C64.5344 12.275 64.5677 12.5735 64.5399 12.8695C64.5682 13.1657 64.5353 13.4647 64.4432 13.7472C64.3512 14.0297 64.202 14.2895 64.0053 14.51C63.8086 14.7304 63.5688 14.9065 63.3012 15.027C63.0336 15.1475 62.7442 15.2098 62.4515 15.2098C62.1588 15.2098 61.8694 15.1475 61.6018 15.027C61.3342 14.9065 61.0944 14.7304 60.8977 14.51C60.701 14.2895 60.5518 14.0297 60.4598 13.7472C60.3677 13.4647 60.3348 13.1657 60.3631 12.8695ZM63.6406 12.8695C63.6406 11.8934 63.2094 11.3226 62.4527 11.3226C61.6931 11.3226 61.2658 11.8934 61.2658 12.8695C61.2658 13.8534 61.6931 14.4198 62.4527 14.4198C63.2094 14.4198 63.6406 13.8494 63.6406 12.8695H63.6406Z" fill="white"/>
<path d="M65.4598 13.8494C65.4598 13.0389 66.0533 12.5716 67.1067 12.5052L68.3061 12.4349V12.0462C68.3061 11.5706 67.9969 11.3021 67.3996 11.3021C66.9118 11.3021 66.5738 11.4842 66.4768 11.8025H65.6308C65.7201 11.0291 66.4355 10.533 67.4399 10.533C68.55 10.533 69.1761 11.095 69.1761 12.0462V15.1228H68.3349V14.49H68.2658C68.1254 14.717 67.9284 14.9021 67.6947 15.0263C67.4611 15.1505 67.1992 15.2094 66.9358 15.197C66.7499 15.2167 66.562 15.1965 66.3843 15.1378C66.2065 15.0791 66.0429 14.9832 65.9038 14.8562C65.7647 14.7293 65.6534 14.5741 65.5769 14.4007C65.5005 14.2272 65.4606 14.0395 65.4598 13.8494ZM68.3061 13.4646V13.0882L67.2248 13.1585C66.6151 13.2 66.3385 13.4109 66.3385 13.8079C66.3385 14.2132 66.6842 14.449 67.1596 14.449C67.2989 14.4633 67.4395 14.449 67.5733 14.4069C67.707 14.3649 67.8311 14.2958 67.938 14.204C68.045 14.1122 68.1327 13.9994 68.196 13.8724C68.2592 13.7453 68.2967 13.6067 68.3061 13.4646Z" fill="white"/>
<path d="M70.3244 12.8693C70.3244 11.4465 71.0437 10.5451 72.1624 10.5451C72.4391 10.5321 72.7137 10.5995 72.9542 10.7394C73.1946 10.8793 73.391 11.0859 73.5202 11.3351H73.5855V8.862H74.4594V15.1227H73.622V14.4113H73.5529C73.4136 14.6588 73.2105 14.8628 72.9654 15.0013C72.7203 15.1398 72.4426 15.2074 72.1624 15.1969C71.036 15.197 70.3244 14.2956 70.3244 12.8693ZM71.2271 12.8693C71.2271 13.8244 71.6698 14.3991 72.4102 14.3991C73.1467 14.3991 73.6019 13.8161 73.6019 12.8732C73.6019 11.9348 73.1419 11.3434 72.4102 11.3434C71.6746 11.3434 71.2271 11.9221 71.2271 12.8693H71.2271Z" fill="white"/>
<path d="M78.0751 12.8694C78.0473 12.5735 78.0806 12.2749 78.1728 11.9928C78.2651 11.7108 78.4144 11.4514 78.611 11.2314C78.8076 11.0115 79.0472 10.8357 79.3145 10.7154C79.5819 10.5951 79.8709 10.533 80.1633 10.533C80.4556 10.533 80.7447 10.5951 81.012 10.7154C81.2793 10.8357 81.5189 11.0115 81.7155 11.2314C81.9122 11.4514 82.0614 11.7108 82.1537 11.9928C82.2459 12.2749 82.2792 12.5735 82.2514 12.8694C82.2798 13.1656 82.2469 13.4646 82.1548 13.7471C82.0628 14.0296 81.9137 14.2895 81.717 14.5099C81.5203 14.7303 81.2805 14.9064 81.0129 15.0269C80.7453 15.1475 80.4559 15.2097 80.1633 15.2097C79.8706 15.2097 79.5812 15.1475 79.3136 15.0269C79.046 14.9064 78.8062 14.7303 78.6095 14.5099C78.4128 14.2895 78.2637 14.0296 78.1717 13.7471C78.0796 13.4646 78.0468 13.1656 78.0751 12.8694ZM81.3526 12.8694C81.3526 11.8933 80.9214 11.3225 80.1647 11.3225C79.4051 11.3225 78.9778 11.8933 78.9778 12.8694C78.9778 13.8533 79.4051 14.4197 80.1647 14.4197C80.9214 14.4197 81.3526 13.8494 81.3526 12.8694Z" fill="white"/>
<path d="M83.4238 10.6211H84.265V11.3364H84.3303C84.4411 11.0795 84.6279 10.8641 84.8647 10.7203C85.1016 10.5765 85.3767 10.5114 85.6516 10.5342C85.8671 10.5177 86.0834 10.5507 86.2846 10.6308C86.4858 10.7109 86.6667 10.836 86.8139 10.9969C86.961 11.1577 87.0708 11.3502 87.1349 11.56C87.199 11.7698 87.2159 11.9916 87.1842 12.2089V15.1239H86.3104V12.4321C86.3104 11.7085 86.0012 11.3486 85.3549 11.3486C85.2086 11.3417 85.0626 11.367 84.9268 11.4228C84.7911 11.4787 84.6688 11.5637 84.5684 11.6721C84.468 11.7805 84.3918 11.9096 84.345 12.0508C84.2983 12.1919 84.2821 12.3416 84.2976 12.4897V15.124H83.4238V10.6211Z" fill="white"/>
<path d="M92.1222 9.49878V10.6404H93.0815V11.3889H92.1222V13.7043C92.1222 14.176 92.3133 14.3825 92.7483 14.3825C92.8596 14.3822 92.9709 14.3753 93.0815 14.362V15.1023C92.9246 15.1308 92.7656 15.146 92.6062 15.1477C91.6344 15.1477 91.2474 14.8 91.2474 13.9319V11.3889H90.5444V10.6403H91.2474V9.49878H92.1222Z" fill="white"/>
<path d="M94.2751 8.862H95.1413V11.3434H95.2105C95.3266 11.0841 95.5186 10.8675 95.7602 10.7232C96.0018 10.5788 96.2813 10.5138 96.5606 10.5368C96.7749 10.5249 96.9892 10.5613 97.1881 10.6434C97.387 10.7254 97.5656 10.8511 97.7113 11.0114C97.8569 11.1718 97.966 11.3628 98.0307 11.5709C98.0954 11.7791 98.1141 11.9992 98.0855 12.2155V15.1227H97.2108V12.4347C97.2108 11.7155 96.8814 11.3512 96.2639 11.3512C96.1137 11.3387 95.9627 11.3597 95.8213 11.4128C95.6799 11.4658 95.5516 11.5496 95.4454 11.6584C95.3392 11.7671 95.2577 11.8981 95.2065 12.0423C95.1553 12.1864 95.1357 12.3402 95.149 12.4928V15.1227H94.2752L94.2751 8.862Z" fill="white"/>
<path d="M103.181 13.9071C103.062 14.3186 102.805 14.6746 102.454 14.9128C102.103 15.1509 101.681 15.2561 101.262 15.2098C100.97 15.2177 100.68 15.1608 100.412 15.0433C100.145 14.9258 99.9049 14.7504 99.7103 14.5292C99.5157 14.3081 99.3707 14.0465 99.2855 13.7627C99.2002 13.4789 99.1767 13.1796 99.2166 12.8856C99.1778 12.5907 99.2017 12.2908 99.2867 12.0061C99.3718 11.7215 99.516 11.4587 99.7096 11.2356C99.9032 11.0126 100.142 10.8344 100.409 10.7132C100.676 10.592 100.966 10.5306 101.258 10.5331C102.49 10.5331 103.233 11.3891 103.233 12.8031V13.1132H100.107V13.163C100.093 13.3282 100.114 13.4945 100.167 13.6513C100.22 13.808 100.305 13.9518 100.416 14.0732C100.527 14.1947 100.662 14.2912 100.812 14.3566C100.961 14.422 101.123 14.4548 101.286 14.453C101.495 14.4785 101.707 14.4402 101.894 14.343C102.082 14.2458 102.237 14.0941 102.339 13.9071L103.181 13.9071ZM100.107 12.4559H102.343C102.354 12.3048 102.334 12.153 102.284 12.0103C102.234 11.8676 102.155 11.7371 102.052 11.6272C101.95 11.5174 101.826 11.4306 101.688 11.3724C101.55 11.3142 101.402 11.286 101.253 11.2894C101.102 11.2875 100.952 11.3164 100.812 11.3743C100.672 11.4323 100.545 11.5181 100.438 11.6268C100.331 11.7355 100.247 11.8649 100.19 12.0073C100.133 12.1497 100.105 12.3022 100.107 12.4559H100.107Z" fill="white"/>
</svg>
